# xmcd
#
# Track frame offsets:
#	150
#	12516
#	32367
#
# Disc length: 628 seconds
#
# Revision: 0
# Processed by: cddbd v1.5PL3 Copyright (c) Steve Scherf et al.
# Submitted via: audiograbber 1.83.01
#
DISCID=17027203
DTITLE=Mad Cows - CD'd it
DYEAR=1900
DGENRE=Blues
TTITLE0=32 20 Blues
TTITLE1=Red House
TTITLE2=Summertime Blues
EXTD=
EXTT0=
EXTT1=
EXTT2=
PLAYORDER=
